<svg version="1.1" id="Layer_1" xmlns="http://www.w3.org/2000/svg" xmlns:xlink="http://www.w3.org/1999/xlink" x="0px" y="0px"
	 width="100%" viewBox="0 0 1024 1024" enable-background="new 0 0 1024 1024" xml:space="preserve">
<path fill="#090027" opacity="1.000000" stroke="none" 
	d="
M572.000000,1025.000000 
	C381.333344,1025.000000 191.166672,1025.000000 1.000000,1025.000000 
	C1.000000,683.666687 1.000000,342.333344 1.000000,1.000000 
	C342.333344,1.000000 683.666687,1.000000 1025.000000,1.000000 
	C1025.000000,342.333344 1025.000000,683.666687 1025.000000,1025.000000 
	C874.166687,1025.000000 723.333313,1025.000000 572.000000,1025.000000 
M224.793503,703.094971 
	C231.801712,713.205383 238.809937,723.315735 245.912903,734.087891 
	C253.607376,743.000000 260.788910,752.428894 269.120850,760.698792 
	C280.603546,772.095947 292.955109,782.617737 305.040802,793.848938 
	C305.204285,794.049194 305.413818,794.130371 305.986389,794.708801 
	C311.253845,798.502747 316.286133,802.688660 321.833374,806.016174 
	C337.759796,815.569885 353.894684,824.776001 370.253510,834.764282 
	C371.039124,835.014160 371.864136,835.179749 372.604675,835.526001 
	C404.564270,850.474548 437.861572,861.052673 472.928223,865.457703 
	C486.217957,867.127136 499.640167,867.741760 513.662415,869.025574 
	C514.113403,868.970703 514.564392,868.915894 515.929565,869.071838 
	C528.140808,868.716431 540.368713,868.635376 552.556885,867.898193 
	C559.399597,867.484375 566.176819,865.985901 573.791931,865.078064 
	C574.859863,864.922302 575.927795,864.766541 577.786072,864.640015 
	C585.749817,863.065125 593.778809,861.761963 601.665649,859.866882 
	C631.281494,852.750183 659.754761,842.560303 686.692566,827.615784 
	C686.692566,827.615784 686.810120,827.371277 686.960266,827.344727 
	C686.960266,827.344727 687.006714,827.199585 687.713867,827.059143 
	C715.582092,811.437012 741.264526,792.873535 764.143188,770.496826 
	C826.095581,709.903503 860.195068,636.128540 867.799133,550.084229 
	C873.153564,489.494995 861.810791,431.752502 836.052673,376.781647 
	C803.973389,308.320557 754.338684,255.918503 688.368408,219.696274 
	C609.759155,176.534302 526.120178,165.821838 438.918121,186.775970 
	C364.484192,204.662003 302.580383,243.423553 254.055618,302.674988 
	C241.156097,318.426056 230.582916,336.082245 218.357880,353.229706 
	C213.137421,363.740265 207.916962,374.250854 202.878098,384.891266 
	C202.878098,384.891266 202.734436,384.720398 202.205841,385.183258 
	C196.263290,402.504608 189.752274,419.658386 184.578629,437.206421 
	C181.145554,448.850739 179.626297,461.059235 177.031967,473.656647 
	C177.055817,474.104767 177.079666,474.552856 176.811523,475.754456 
	C175.905396,488.168915 174.999252,500.583344 173.900574,513.786438 
	C173.954041,514.862610 174.007507,515.938782 173.867126,517.894104 
	C173.926117,520.590698 173.985123,523.287354 173.871643,526.730896 
	C173.939224,527.488953 174.006821,528.247009 173.912476,529.928528 
	C174.932922,542.290588 175.953354,554.652649 176.854416,567.681763 
	C176.947327,568.119568 177.040237,568.557373 177.034271,569.851196 
	C180.334869,592.755432 185.290833,615.257446 193.445969,637.727905 
	C201.618561,660.333191 211.527725,682.103821 224.710297,702.270020 
	C224.710297,702.270020 224.566635,702.439514 224.793503,703.094971 
z"/>
<path fill="#FBF6DE" opacity="1.000000" stroke="none" 
	d="
M576.995728,864.610840 
	C575.927795,864.766541 574.859863,864.922302 573.091431,864.765503 
	C570.433594,864.411255 568.466919,864.226318 566.520325,864.351990 
	C556.519043,864.998047 546.513062,865.608337 536.528320,866.460754 
	C529.341431,867.074341 522.185242,868.048035 515.015381,868.861023 
	C514.564392,868.915894 514.113403,868.970703 513.203735,868.561340 
	C512.041260,867.740906 511.366669,867.157532 510.629211,867.062744 
	C499.884186,865.681702 489.117737,864.462219 478.383270,863.005920 
	C468.790131,861.704468 459.231110,860.152222 449.654572,858.726990 
	C447.768860,858.446289 445.815582,858.450073 443.991486,857.958679 
	C439.572968,856.768372 435.182404,855.454163 430.835144,854.023987 
	C424.096710,851.807190 417.394043,849.480164 410.696472,847.141785 
	C408.198059,846.269470 405.822723,844.976746 403.276520,844.321716 
	C395.822906,842.404358 388.435211,840.571289 381.618347,836.637207 
	C378.188629,834.657898 373.903351,834.161072 369.856201,832.683960 
	C363.151001,828.195557 356.645599,823.933899 350.020813,819.866638 
	C345.271118,816.950623 340.296631,814.400940 335.544769,811.488220 
	C332.006775,809.319519 328.577454,806.947266 325.259583,804.453125 
	C321.875214,801.909119 318.561371,799.240967 315.447723,796.376099 
	C312.530365,793.691833 309.588135,792.051270 305.669403,794.092407 
	C305.413818,794.130371 305.204285,794.049194 305.003784,793.276245 
	C301.670776,788.497803 299.224640,782.606934 294.906006,780.428833 
	C285.205048,775.536194 280.515503,765.747803 272.034698,759.750671 
	C266.559784,755.879150 262.388641,750.046509 258.008423,744.780640 
	C254.383591,740.422852 251.308243,735.608093 247.946716,730.653687 
	C241.769135,722.202576 235.707153,714.036499 229.435608,706.034729 
	C228.236160,704.504333 226.210907,703.621216 224.566650,702.439514 
	C224.566635,702.439514 224.710297,702.270020 224.765656,701.971436 
	C227.889267,696.084595 222.127090,693.123169 220.524414,689.182434 
	C216.953659,680.402100 211.607285,672.343811 206.867340,663.783813 
	C206.552155,663.317078 206.302124,663.125732 206.000046,663.001221 
	C206.000000,663.000000 205.997864,663.000000 205.969025,662.709351 
	C205.628464,661.951965 205.316757,661.485291 204.993195,660.641907 
	C202.644043,653.507324 200.306732,646.749512 198.182190,639.730957 
	C199.926956,638.157471 200.325531,637.439941 198.230972,635.770996 
	C196.006149,633.998291 194.064850,631.282959 193.141113,628.588074 
	C191.300720,623.218872 190.651917,617.438293 188.777328,612.084473 
	C184.498077,599.862915 181.554947,587.446472 180.826340,574.470825 
	C180.720306,572.582397 178.418777,570.817322 177.133163,568.995178 
	C177.040237,568.557373 176.947327,568.119568 177.181900,567.058655 
	C177.666168,565.635681 177.999252,564.825500 177.953125,564.037537 
	C177.327911,553.354614 176.697266,542.671204 175.910278,531.999573 
	C175.833755,530.961914 174.711334,530.001404 174.074402,529.005066 
	C174.006821,528.247009 173.939224,527.488953 174.207916,526.075684 
	C174.026489,522.639160 177.792740,519.611572 174.060989,517.014954 
	C174.007507,515.938782 173.954041,514.862610 174.341370,513.336182 
	C175.381927,512.049744 176.478821,511.228668 176.504852,510.374939 
	C176.777512,501.434265 176.883850,492.488495 177.024277,483.543884 
	C177.068985,480.696533 177.078094,477.848633 177.103500,475.000977 
	C177.079666,474.552856 177.055817,474.104767 177.496002,473.317993 
	C181.186890,471.645538 182.230743,469.413757 181.565598,465.894928 
	C181.121384,463.544983 180.976807,460.809418 181.746841,458.614288 
	C185.650620,447.485840 187.970581,435.738129 190.095978,424.426361 
	C191.990921,414.341156 201.223434,407.257233 199.444534,396.468689 
	C199.404495,396.225830 199.713959,395.837524 199.960938,395.648254 
	C203.768723,392.730194 203.186783,388.710846 202.734436,384.720398 
	C202.734436,384.720398 202.878098,384.891266 203.154999,384.849121 
	C204.974823,383.039337 206.940063,381.487885 207.977264,379.461395 
	C210.537323,374.459534 211.881775,368.632324 215.218628,364.293335 
	C218.062363,360.595520 220.244080,357.536865 218.941635,352.863739 
	C230.582916,336.082245 241.156097,318.426056 254.055618,302.674988 
	C302.580383,243.423553 364.484192,204.662003 438.918121,186.775970 
	C526.120178,165.821838 609.759155,176.534302 688.368408,219.696274 
	C754.338684,255.918503 803.973389,308.320557 836.052673,376.781647 
	C861.810791,431.752502 873.153564,489.494995 867.799133,550.084229 
	C860.195068,636.128540 826.095581,709.903503 764.143188,770.496826 
	C741.264526,792.873535 715.582092,811.437012 687.281860,826.992004 
	C686.849915,826.924866 686.578674,826.989197 686.578674,826.989197 
	C686.578674,826.989197 686.810120,827.371277 686.810120,827.371277 
	C686.810120,827.371277 686.692566,827.615784 686.167236,827.476562 
	C681.932373,828.889099 678.240051,830.483704 674.509827,831.984131 
	C665.981262,835.414490 657.522278,839.045105 648.873474,842.143250 
	C636.277405,846.655212 623.677795,851.261169 610.816467,854.895386 
	C600.986389,857.673035 590.723999,858.897095 580.719055,861.106934 
	C579.289673,861.422607 578.227722,863.401611 576.995728,864.610840 
M280.666260,338.632477 
	C280.666260,338.632477 280.495056,338.736938 279.760803,338.444977 
	C278.865082,339.997559 277.969360,341.550140 277.010620,343.028870 
	C277.010620,343.028870 277.100586,343.065277 276.389374,343.116791 
	C273.173950,346.843536 266.229248,348.173920 268.053406,355.001862 
	C268.193512,355.143890 268.333588,355.285950 267.832031,355.544861 
	C267.589630,356.114746 267.347229,356.684662 266.983673,357.923859 
	C235.736649,405.514740 218.882797,457.615082 217.819473,514.677673 
	C216.723846,573.473816 230.152374,628.480530 260.715942,678.996277 
	C296.261169,737.745728 346.550842,779.180115 409.981110,804.660950 
	C425.479584,810.886841 441.880035,814.867432 458.555969,820.264099 
	C463.813751,821.442505 469.071564,822.620911 475.454285,824.051453 
	C474.732208,816.234436 474.514038,809.433289 473.415070,802.777649 
	C469.546387,779.347473 457.375031,760.077271 442.624878,742.078369 
	C419.106171,713.379578 395.405823,684.818054 372.463440,655.662537 
	C355.882996,634.591858 342.546936,611.578857 337.512787,584.696655 
	C336.361969,578.551270 335.907806,572.275391 335.132996,566.059509 
	C335.427856,566.030823 335.722687,566.002136 336.017517,565.973450 
	C337.294617,567.685425 338.571686,569.397461 340.158386,571.715698 
	C352.675934,590.918762 367.553833,607.993408 385.763397,622.023804 
	C387.538757,623.391724 389.765381,624.173828 391.996216,625.557678 
	C392.207458,625.517883 392.418732,625.478088 392.629974,625.438293 
	C392.463989,625.253052 392.298004,625.067810 392.078461,624.170410 
	C391.342773,622.765259 390.607086,621.360107 389.825470,619.361328 
	C389.554565,618.875916 389.283661,618.390503 389.018921,617.990906 
	C389.018921,617.990906 389.103699,617.976135 389.061096,617.150574 
	C388.826477,615.860779 388.633636,614.561768 388.350800,613.282593 
	C385.414886,600.004761 383.216309,586.668213 385.795410,573.015625 
	C386.557495,573.730530 387.603333,574.306824 388.031982,575.184570 
	C389.768341,578.740234 391.314941,582.388489 393.201996,586.574097 
	C393.398285,587.380371 393.594604,588.186646 393.386047,589.512695 
	C393.898682,590.679688 394.411316,591.846741 395.176514,593.403381 
	C395.330109,593.688232 395.375946,593.989502 395.142242,595.216125 
	C394.536285,599.741638 396.142303,603.319214 400.083588,606.403931 
	C400.255463,606.691528 400.331543,607.002563 400.287201,607.976257 
	C400.528687,608.317139 400.770172,608.658020 401.490753,609.508118 
	C403.289215,613.259460 404.977509,617.068481 406.904053,620.752808 
	C419.181152,644.232178 435.289795,664.999023 452.561096,684.926025 
	C455.573395,688.401550 458.847504,691.650085 462.163605,695.661804 
	C464.334290,698.126526 466.504944,700.591248 468.675629,703.055969 
	C469.361359,701.413208 469.204071,700.451965 468.840210,699.576538 
	C463.530090,686.800842 461.479401,673.574402 462.853607,659.763184 
	C464.555573,642.657898 470.952759,627.793518 483.043549,615.434387 
	C485.896881,612.517761 488.406525,609.264832 491.689056,605.766907 
	C494.552704,604.657410 497.416382,603.547913 500.280029,602.438477 
	C499.730164,604.776733 498.763306,606.074341 497.730286,607.316895 
	C496.562408,608.721802 495.269470,610.025879 494.143463,611.462036 
	C477.964020,632.098816 475.602356,655.763367 479.629822,680.542847 
	C482.805725,700.083008 491.889374,717.277710 502.167206,733.955688 
	C508.431732,744.121277 514.052246,754.683777 520.027039,765.614075 
	C520.378540,765.465576 520.730042,765.317078 521.281189,764.241699 
	C521.237610,760.482727 521.194031,756.723694 521.798218,752.430237 
	C521.901794,750.282043 522.301697,748.100098 522.061646,745.991028 
	C520.279968,730.336853 518.530396,714.676025 516.454529,699.059326 
	C514.617126,685.236633 513.922668,671.520264 519.075989,658.233337 
	C522.972839,648.185791 529.087341,640.117615 539.978943,637.846436 
	C531.830261,654.276550 530.683472,671.629700 535.766174,688.810181 
	C540.986267,706.455078 548.128174,723.526001 554.250610,740.910889 
	C561.738037,762.171936 564.990356,783.839294 558.981750,806.049805 
	C557.264221,812.398743 554.580872,818.486450 552.162964,825.185547 
	C559.194092,824.097473 566.082275,823.154907 572.924622,821.952209 
	C610.141724,815.410339 645.152649,802.812195 677.502991,783.196899 
	C699.484497,769.868652 719.375977,753.800354 738.649292,735.958069 
	C744.291321,736.570435 744.786682,732.878906 744.982910,728.980713 
	C744.982910,728.980713 744.697815,728.723389 745.481384,728.856262 
	C750.877625,728.028564 752.952637,725.390747 753.746582,718.758850 
	C753.746582,718.758850 753.594421,718.556396 754.366394,718.764587 
	C756.183716,717.631409 758.725647,716.918213 759.674194,715.281555 
	C761.961304,711.335632 766.988586,710.031616 768.409424,705.238892 
	C769.196594,702.583984 771.453552,700.401917 772.698425,697.837097 
	C774.601013,693.916809 776.201233,689.849792 777.995056,685.286926 
	C778.347717,684.862671 778.700439,684.438416 779.804688,683.977295 
	C780.635864,682.174194 781.467041,680.371094 782.329407,678.381836 
	C782.329407,678.381836 782.473328,678.259644 783.166809,678.535583 
	C783.840149,678.172058 784.820190,677.982788 785.140686,677.418762 
	C789.591187,669.587097 794.077942,661.770691 798.273193,653.801697 
	C800.023315,650.477356 800.767090,646.617676 802.556458,643.320557 
	C807.750671,633.749573 811.552612,623.689697 814.017212,613.110046 
	C815.352112,607.379578 816.412109,601.581055 817.880981,595.886719 
	C819.716187,588.771912 822.272400,581.815918 823.668823,574.626465 
	C824.386047,570.933960 823.259216,566.883240 822.843750,562.325317 
	C822.942261,561.886780 823.040771,561.448242 823.850769,560.787354 
	C824.895874,554.843872 826.685852,548.921936 826.858765,542.953186 
	C827.661499,515.250366 827.065552,487.592621 821.224243,460.335663 
	C820.131226,455.235565 818.331848,450.290771 817.030029,445.230194 
	C816.054932,441.439484 815.596985,437.505981 814.482666,433.762939 
	C812.162476,425.969849 810.014954,418.069183 806.871216,410.602295 
	C805.412354,407.137451 805.183105,402.049744 799.498474,400.645630 
	C799.353821,400.086853 799.209167,399.528107 799.574341,398.362579 
	C801.754944,393.386902 798.223145,390.289795 795.806702,386.800568 
	C791.712524,380.888885 794.002991,371.433228 785.394775,367.994141 
	C785.202332,367.917236 785.231018,367.370514 785.086487,367.077545 
	C783.156860,363.165466 781.716980,358.891266 779.175720,355.425415 
	C773.058289,347.082245 766.423584,339.118378 759.860901,330.319946 
	C755.773987,325.675873 751.796692,320.926147 747.508606,316.475922 
	C746.640137,315.574585 744.597290,315.804718 742.583862,315.264984 
	C741.976562,314.545776 741.369202,313.826569 741.310303,312.689148 
	C739.779724,307.230743 736.220154,303.311462 731.752625,300.077606 
	C730.433044,299.122406 728.568726,298.434296 727.907288,297.137573 
	C724.647156,290.746277 718.337341,287.545807 713.050598,283.718750 
	C703.961853,277.139404 696.156189,268.686401 685.632507,264.122772 
	C685.489746,264.060852 685.405823,263.874512 685.268799,263.785858 
	C678.686279,259.527344 672.269043,254.975586 665.455566,251.125214 
	C661.055603,248.638702 656.078308,247.171204 651.353027,245.263428 
	C641.421753,241.253738 631.541626,237.109268 621.533813,233.300201 
	C614.287170,230.542068 607.018005,227.594772 598.488281,227.494843 
	C597.377502,227.176331 596.177246,227.031464 595.169983,226.512177 
	C585.981140,221.775040 575.868469,220.661819 565.887756,219.495346 
	C554.895203,218.210587 543.807007,217.371124 532.744629,217.156921 
	C520.828552,216.926178 508.890381,217.542938 496.969208,217.986786 
	C489.406403,218.268387 481.784180,218.442368 474.335236,219.604492 
	C471.073181,220.113403 466.502716,219.940598 464.290131,224.859924 
	C463.522278,224.887115 462.754395,224.914322 461.420746,224.446442 
	C460.283081,224.362640 459.083191,224.000778 458.017639,224.239258 
	C449.838531,226.069778 441.576477,227.655487 433.567841,230.071701 
	C429.190491,231.392365 425.255585,234.179520 420.727478,236.740692 
	C420.155182,236.838699 419.582916,236.936691 418.469513,236.509842 
	C416.445312,236.706360 414.336151,236.611450 412.417603,237.170532 
	C409.808319,237.930923 407.357605,239.223862 404.815460,240.229156 
	C401.054443,241.716431 397.141724,242.895767 393.561737,244.729645 
	C392.040222,245.509064 391.197235,247.613144 389.699677,249.587402 
	C389.148895,249.760193 388.598145,249.932983 387.565186,249.578506 
	C386.774933,249.468048 385.813690,249.008606 385.220062,249.299469 
	C376.283630,253.678070 367.391205,258.062653 359.272491,263.988831 
	C352.938904,268.611938 345.854828,272.195984 339.326233,276.572876 
	C338.142212,277.366669 338.030945,279.760559 337.134644,281.115845 
	C337.134644,281.115845 337.395416,281.441345 336.856201,281.472534 
	C336.644226,281.745178 336.432251,282.017822 336.106659,282.110413 
	C336.106659,282.110413 336.263153,282.254761 335.479614,282.136047 
	C332.299530,282.348938 329.793335,283.279907 329.866333,287.732819 
	C329.234589,288.152924 328.602844,288.573029 327.170135,288.993896 
	C325.041016,289.202728 322.543243,289.067261 323.740936,292.782654 
	C323.740936,292.782654 323.441742,292.829926 322.751556,292.458221 
	C318.291962,295.069672 313.832336,297.681091 309.264618,300.355835 
	C309.508667,301.836914 309.774902,303.452667 310.005585,305.005096 
	C310.005585,305.005096 310.068878,305.040680 309.260559,305.014496 
	C304.483826,304.517212 302.374146,307.851776 299.888214,311.097107 
	C295.621429,316.667267 291.400177,322.413208 286.285767,327.139526 
	C283.293671,329.904602 281.222992,332.095917 282.044952,336.062561 
	C282.044952,336.062561 282.209106,336.168793 281.499603,336.227203 
	C281.241089,336.964966 280.982605,337.702728 280.666260,338.632477 
M470.563843,704.473328 
	C470.563843,704.473328 470.469238,704.528503 470.563843,704.473328 
z"/>
<path fill="#F2F1E6" opacity="1.000000" stroke="none" 
	d="
M370.004913,832.993896 
	C373.903351,834.161072 378.188629,834.657898 381.618347,836.637207 
	C388.435211,840.571289 395.822906,842.404358 403.276520,844.321716 
	C405.822723,844.976746 408.198059,846.269470 410.696472,847.141785 
	C417.394043,849.480164 424.096710,851.807190 430.835144,854.023987 
	C435.182404,855.454163 439.572968,856.768372 443.991486,857.958679 
	C445.815582,858.450073 447.768860,858.446289 449.654572,858.726990 
	C459.231110,860.152222 468.790131,861.704468 478.383270,863.005920 
	C489.117737,864.462219 499.884186,865.681702 510.629211,867.062744 
	C511.366669,867.157532 512.041260,867.740906 512.873535,868.467163 
	C499.640167,867.741760 486.217957,867.127136 472.928223,865.457703 
	C437.861572,861.052673 404.564270,850.474548 372.604675,835.526001 
	C371.864136,835.179749 371.039124,835.014160 370.117950,834.160522 
	C369.989899,833.369080 369.997406,833.181458 370.004913,832.993896 
z"/>
<path fill="#F2F1E6" opacity="1.000000" stroke="none" 
	d="
M577.390869,864.625427 
	C578.227722,863.401611 579.289673,861.422607 580.719055,861.106934 
	C590.723999,858.897095 600.986389,857.673035 610.816467,854.895386 
	C623.677795,851.261169 636.277405,846.655212 648.873474,842.143250 
	C657.522278,839.045105 665.981262,835.414490 674.509827,831.984131 
	C678.240051,830.483704 681.932373,828.889099 686.033325,827.498169 
	C659.754761,842.560303 631.281494,852.750183 601.665649,859.866882 
	C593.778809,861.761963 585.749817,863.065125 577.390869,864.625427 
z"/>
<path fill="#F4F1EC" opacity="1.000000" stroke="none" 
	d="
M247.989426,730.995789 
	C251.308243,735.608093 254.383591,740.422852 258.008423,744.780640 
	C262.388641,750.046509 266.559784,755.879150 272.034698,759.750671 
	C280.515503,765.747803 285.205048,775.536194 294.906006,780.428833 
	C299.224640,782.606934 301.670776,788.497803 304.950623,793.109009 
	C292.955109,782.617737 280.603546,772.095947 269.120850,760.698792 
	C260.788910,752.428894 253.607376,743.000000 246.001389,733.450317 
	C246.723053,732.207153 247.356247,731.601440 247.989426,730.995789 
z"/>
<path fill="#EFEDE7" opacity="1.000000" stroke="none" 
	d="
M369.856201,832.683960 
	C369.997406,833.181458 369.989899,833.369080 369.965027,833.837708 
	C353.894684,824.776001 337.759796,815.569885 321.833374,806.016174 
	C316.286133,802.688660 311.253845,798.502747 305.827881,794.400635 
	C309.588135,792.051270 312.530365,793.691833 315.447723,796.376099 
	C318.561371,799.240967 321.875214,801.909119 325.259583,804.453125 
	C328.577454,806.947266 332.006775,809.319519 335.544769,811.488220 
	C340.296631,814.400940 345.271118,816.950623 350.020813,819.866638 
	C356.645599,823.933899 363.151001,828.195557 369.856201,832.683960 
z"/>
<path fill="#EFEBE5" opacity="1.000000" stroke="none" 
	d="
M202.470139,384.951843 
	C203.186783,388.710846 203.768723,392.730194 199.960938,395.648254 
	C199.713959,395.837524 199.404495,396.225830 199.444534,396.468689 
	C201.223434,407.257233 191.990921,414.341156 190.095978,424.426361 
	C187.970581,435.738129 185.650620,447.485840 181.746841,458.614288 
	C180.976807,460.809418 181.121384,463.544983 181.565598,465.894928 
	C182.230743,469.413757 181.186890,471.645538 177.605194,472.997253 
	C179.626297,461.059235 181.145554,448.850739 184.578629,437.206421 
	C189.752274,419.658386 196.263290,402.504608 202.470139,384.951843 
z"/>
<path fill="#F1ECE9" opacity="1.000000" stroke="none" 
	d="
M197.969421,639.991699 
	C200.306732,646.749512 202.644043,653.507324 205.023438,660.931213 
	C205.376312,662.064819 205.687088,662.532410 205.997864,663.000000 
	C205.997864,663.000000 206.000000,663.000000 206.119003,663.207458 
	C206.435944,663.672974 206.684769,663.865112 206.984497,663.991333 
	C211.607285,672.343811 216.953659,680.402100 220.524414,689.182434 
	C222.127090,693.123169 227.889267,696.084595 224.672424,702.031860 
	C211.527725,682.103821 201.618561,660.333191 193.708847,637.432129 
	C195.304291,638.088135 196.636856,639.039917 197.969421,639.991699 
z"/>
<path fill="#EFEBE5" opacity="1.000000" stroke="none" 
	d="
M198.182190,639.730957 
	C196.636856,639.039917 195.304291,638.088135 193.660736,637.070984 
	C185.290833,615.257446 180.334869,592.755432 177.083710,569.423218 
	C178.418777,570.817322 180.720306,572.582397 180.826340,574.470825 
	C181.554947,587.446472 184.498077,599.862915 188.777328,612.084473 
	C190.651917,617.438293 191.300720,623.218872 193.141113,628.588074 
	C194.064850,631.282959 196.006149,633.998291 198.230972,635.770996 
	C200.325531,637.439941 199.926956,638.157471 198.182190,639.730957 
z"/>
<path fill="#F1ECE9" opacity="1.000000" stroke="none" 
	d="
M247.946716,730.653687 
	C247.356247,731.601440 246.723053,732.207153 245.954010,733.119507 
	C238.809937,723.315735 231.801712,713.205383 224.680084,702.767212 
	C226.210907,703.621216 228.236160,704.504333 229.435608,706.034729 
	C235.707153,714.036499 241.769135,722.202576 247.946716,730.653687 
z"/>
<path fill="#F2F1E6" opacity="1.000000" stroke="none" 
	d="
M515.472473,868.966431 
	C522.185242,868.048035 529.341431,867.074341 536.528320,866.460754 
	C546.513062,865.608337 556.519043,864.998047 566.520325,864.351990 
	C568.466919,864.226318 570.433594,864.411255 572.687256,864.714478 
	C566.176819,865.985901 559.399597,867.484375 552.556885,867.898193 
	C540.368713,868.635376 528.140808,868.716431 515.472473,868.966431 
z"/>
<path fill="#EFEBE5" opacity="1.000000" stroke="none" 
	d="
M218.649750,353.046722 
	C220.244080,357.536865 218.062363,360.595520 215.218628,364.293335 
	C211.881775,368.632324 210.537323,374.459534 207.977264,379.461395 
	C206.940063,381.487885 204.974823,383.039337 203.064209,384.784180 
	C207.916962,374.250854 213.137421,363.740265 218.649750,353.046722 
z"/>
<path fill="#EFEBE5" opacity="1.000000" stroke="none" 
	d="
M176.957520,475.377716 
	C177.078094,477.848633 177.068985,480.696533 177.024277,483.543884 
	C176.883850,492.488495 176.777512,501.434265 176.504852,510.374939 
	C176.478821,511.228668 175.381927,512.049744 174.437653,512.941895 
	C174.999252,500.583344 175.905396,488.168915 176.957520,475.377716 
z"/>
<path fill="#EFEBE5" opacity="1.000000" stroke="none" 
	d="
M173.993439,529.466797 
	C174.711334,530.001404 175.833755,530.961914 175.910278,531.999573 
	C176.697266,542.671204 177.327911,553.354614 177.953125,564.037537 
	C177.999252,564.825500 177.666168,565.635681 177.241577,566.725098 
	C175.953354,554.652649 174.932922,542.290588 173.993439,529.466797 
z"/>
<path fill="#EFEBE5" opacity="1.000000" stroke="none" 
	d="
M173.964050,517.454529 
	C177.792740,519.611572 174.026489,522.639160 174.294159,525.702271 
	C173.985123,523.287354 173.926117,520.590698 173.964050,517.454529 
z"/>
<path fill="#F2F1E6" opacity="1.000000" stroke="none" 
	d="
M686.885193,827.358032 
	C686.810120,827.371277 686.578674,826.989197 686.578674,826.989197 
	C686.578674,826.989197 686.849915,826.924866 686.928345,827.062256 
	C687.006714,827.199585 686.960266,827.344727 686.885193,827.358032 
z"/>
<path fill="#0A0227" opacity="1.000000" stroke="none" 
	d="
M400.311829,607.336975 
	C400.331543,607.002563 400.255463,606.691528 399.912476,605.851807 
	C398.265564,601.635437 396.789764,597.971252 395.313965,594.307068 
	C395.375946,593.989502 395.330109,593.688232 395.089386,592.855469 
	C394.598480,591.202637 394.194702,590.097778 393.790955,588.992920 
	C393.594604,588.186646 393.398285,587.380371 393.107361,585.881226 
	C391.336548,575.733643 389.660309,566.278931 387.704254,555.245850 
	C386.680725,562.062378 385.859589,567.531128 385.038452,572.999817 
	C383.216309,586.668213 385.414886,600.004761 388.350800,613.282593 
	C388.633636,614.561768 388.826477,615.860779 388.735779,617.679321 
	C381.659088,610.698547 373.963104,603.825684 368.373352,595.533142 
	C359.556030,582.452332 351.709137,568.652588 344.338013,554.689087 
	C340.611725,547.630249 338.829102,539.545349 336.176727,531.578003 
	C336.070557,530.355774 335.955292,529.479797 335.631531,528.231628 
	C334.376190,517.708191 333.329376,507.557037 332.141083,496.034027 
	C330.354706,499.434967 329.156677,501.715729 327.707092,504.230530 
	C325.926086,507.967438 324.396667,511.470306 322.620911,515.220703 
	C321.001068,519.982178 319.627563,524.496094 318.117340,529.306213 
	C317.899109,530.029602 317.817596,530.456848 317.446655,531.155029 
	C314.273926,546.866943 313.782806,562.463074 316.160950,577.910889 
	C319.291901,598.249023 326.316559,617.417175 336.490204,635.331421 
	C340.316620,642.069214 344.700653,648.490417 348.887787,655.345215 
	C349.305298,656.085999 349.665436,656.537476 350.102051,657.302490 
	C351.188324,658.911133 352.198090,660.206177 353.234924,661.586548 
	C353.261993,661.671997 353.396393,661.790466 353.505463,662.090393 
	C364.059021,676.314026 374.503510,690.237793 385.036926,704.485107 
	C402.681091,728.945923 419.804321,753.312256 426.600250,783.252441 
	C432.620697,767.731018 429.298981,752.591675 425.555573,737.358398 
	C446.986176,760.701050 458.899811,787.740967 457.865784,819.880371 
	C441.880035,814.867432 425.479584,810.886841 409.981110,804.660950 
	C346.550842,779.180115 296.261169,737.745728 260.715942,678.996277 
	C230.152374,628.480530 216.723846,573.473816 217.819473,514.677673 
	C218.882797,457.615082 235.736649,405.514740 267.301575,357.444824 
	C267.904205,356.453247 268.188965,355.940643 268.473694,355.428040 
	C268.333588,355.285950 268.193512,355.143890 268.520935,354.998474 
	C271.692535,351.018494 274.396545,347.041901 277.100586,343.065277 
	C277.100586,343.065277 277.010620,343.028870 277.322540,342.918549 
	C278.587982,341.451141 279.541534,340.094025 280.495056,338.736938 
	C280.495056,338.736938 280.666260,338.632477 280.900269,338.349487 
	C281.492523,337.433929 281.850800,336.801361 282.209106,336.168793 
	C282.209106,336.168793 282.044952,336.062561 282.410706,335.979095 
	C291.873901,325.610657 300.971405,315.325653 310.068878,305.040680 
	C310.068878,305.040680 310.005585,305.005096 310.339325,304.919891 
	C314.929291,300.833099 319.185516,296.831512 323.441742,292.829926 
	C323.441742,292.829926 323.740936,292.782654 324.085846,292.528320 
	C325.610870,291.180328 326.790985,290.086731 327.971100,288.993103 
	C328.602844,288.573029 329.234589,288.152924 330.299072,287.366638 
	C332.575623,285.418579 334.419373,283.836670 336.263153,282.254761 
	C336.263153,282.254761 336.106659,282.110413 336.416626,282.151123 
	C336.949554,281.941681 337.172485,281.691498 337.395416,281.441345 
	C337.395416,281.441345 337.134644,281.115845 337.597412,281.147400 
	C354.722595,270.821259 371.384979,260.463501 388.047363,250.105774 
	C388.598145,249.932983 389.148895,249.760193 390.243073,249.315735 
	C400.194519,245.040955 409.602570,241.037827 419.010620,237.034683 
	C419.582916,236.936691 420.155182,236.838699 421.309021,236.485107 
	C435.255859,232.466873 448.621216,228.704208 461.986542,224.941528 
	C462.754395,224.914322 463.522278,224.887115 465.029419,224.678009 
	C497.522736,218.188080 529.458679,217.286484 561.468994,221.931534 
	C574.055298,223.757935 586.492126,226.614059 599.282593,229.238068 
	C637.144409,239.927505 672.184998,255.756042 702.957275,279.951721 
	C716.114441,290.296936 728.193115,302.013794 740.761902,313.107361 
	C741.369202,313.826569 741.976562,314.545776 743.000671,315.698730 
	C748.283264,321.743011 753.149109,327.353546 758.096924,333.294525 
	C761.943298,338.493866 766.218201,343.054565 769.377869,348.288513 
	C779.495667,365.047943 789.200378,382.056763 799.064514,398.969330 
	C799.209167,399.528107 799.353821,400.086853 799.757202,401.196533 
	C815.756165,438.633392 825.467102,476.887238 825.245911,517.206909 
	C825.165771,531.811279 823.876709,546.408936 823.139282,561.009705 
	C823.040771,561.448242 822.942261,561.886780 822.716003,563.001831 
	C819.508667,577.963867 816.912170,592.374756 813.243835,606.507324 
	C806.642212,631.940308 795.277527,655.432739 782.473328,678.259644 
	C782.473328,678.259644 782.329407,678.381836 782.092285,678.695801 
	C780.921082,680.677856 779.987061,682.345947 779.053101,684.014160 
	C778.700439,684.438416 778.347717,684.862671 777.675964,685.749756 
	C769.436035,696.993896 761.515259,707.775146 753.594421,718.556396 
	C753.594421,718.556396 753.746582,718.758850 753.374023,718.854980 
	C750.233582,722.208557 747.465698,725.465942 744.697815,728.723389 
	C744.697815,728.723389 744.982910,728.980713 744.546692,728.981567 
	C742.010132,731.291504 739.909790,733.600464 737.809448,735.909485 
	C719.375977,753.800354 699.484497,769.868652 677.502991,783.196899 
	C645.152649,802.812195 610.141724,815.410339 572.924622,821.952209 
	C566.082275,823.154907 559.194092,824.097473 552.162964,825.185547 
	C554.580872,818.486450 557.264221,812.398743 558.981750,806.049805 
	C564.990356,783.839294 561.738037,762.171936 554.250610,740.910889 
	C548.128174,723.526001 540.986267,706.455078 535.766174,688.810181 
	C530.683472,671.629700 531.830261,654.276550 540.358521,637.296326 
	C543.016052,632.898865 544.751160,628.571716 547.659546,625.281555 
	C567.292297,603.071411 591.645752,590.111389 621.637268,589.132446 
	C634.276184,588.719971 646.977356,589.685913 659.584290,588.928162 
	C685.763916,587.354675 708.858093,577.646912 727.556335,559.179382 
	C741.519775,545.388245 750.104431,528.843262 748.365112,508.256561 
	C748.028564,504.272491 746.350281,502.601257 742.817200,501.193970 
	C735.756409,498.381592 728.385559,495.774414 722.152405,491.581543 
	C710.598816,483.809723 708.927307,471.140717 717.218140,459.798859 
	C723.671631,456.150360 730.130920,454.671234 734.414795,455.780853 
	C728.127686,459.930603 726.579529,462.214691 725.273560,469.353577 
	C725.154968,475.024963 728.235291,478.607544 733.132812,478.646606 
	C736.462463,478.673157 740.406250,476.577362 743.031128,474.251923 
	C748.246399,469.631622 753.978088,467.186676 760.765381,467.989532 
	C766.508728,468.668945 772.163574,470.097076 778.020691,471.530029 
	C776.939392,478.772522 777.378967,486.649689 774.080444,492.372040 
	C768.214294,502.548889 767.439453,512.916382 768.040771,523.930542 
	C768.140442,525.755249 768.073120,527.594971 767.985474,529.423096 
	C766.385071,562.834473 752.811523,589.295837 723.089600,606.228760 
	C701.867065,618.319519 678.935974,624.340332 654.553284,625.090149 
	C643.079834,625.443054 631.613220,626.019226 619.703491,626.355225 
	C615.122131,626.508240 610.954407,626.595581 606.843933,627.126465 
	C585.434265,629.891357 570.683105,642.910339 566.431152,662.925110 
	C564.025391,674.249268 565.314758,685.521362 568.500122,696.459290 
	C574.013489,715.391052 580.007629,734.182861 585.808533,753.500610 
	C585.816956,764.512878 585.816956,775.057800 585.816956,785.756104 
	C587.447815,783.446228 589.365356,781.028198 590.965515,778.415771 
	C601.424133,761.340637 601.807678,742.537781 600.520081,723.370056 
	C599.452087,707.470947 597.619751,691.492737 598.287903,675.640686 
	C599.099915,656.374207 611.278625,642.618774 628.430359,639.485657 
	C636.058533,638.092224 644.008667,638.078674 651.811157,638.096802 
	C672.191345,638.144165 691.802673,634.250549 710.712219,626.931641 
	C737.286621,616.646057 758.296631,599.872620 770.624023,573.571411 
	C778.551941,556.656860 780.883545,538.550964 780.774048,520.108459 
	C780.728027,512.358459 780.909119,504.943634 785.551453,498.230957 
	C787.017944,496.110291 787.669312,493.355621 788.397034,490.806396 
	C791.796082,478.899536 792.668823,467.229218 784.629761,456.487091 
	C784.596558,456.425446 784.482727,456.343903 784.315491,456.067352 
	C778.476196,448.626923 770.091370,446.229340 762.119019,442.906677 
	C739.457397,433.461975 716.563965,424.458740 694.454590,413.839386 
	C676.277222,405.108582 662.165100,391.642456 656.951782,370.748962 
	C656.919312,370.329803 656.848816,370.169952 656.801086,369.618164 
	C656.539429,368.102264 656.235107,366.982910 655.973267,365.853668 
	C650.313904,341.448181 638.194092,321.130951 617.947144,305.648560 
	C617.531860,305.281677 617.212891,305.159180 616.723267,304.752655 
	C596.514465,289.327820 573.578979,281.611481 548.683044,277.989502 
	C547.920044,277.877838 547.474060,277.883392 546.693176,277.677673 
	C456.939972,266.428741 381.157837,306.030243 335.875549,371.949127 
	C351.136597,363.698395 366.416962,361.468811 383.554016,363.585907 
	C377.801025,365.830627 373.207611,367.622894 368.571655,369.430328 
	C368.529083,369.445526 368.446289,369.481720 368.109070,369.569031 
	C346.620697,379.993073 328.824097,394.274384 315.735443,414.048920 
	C310.921539,421.321808 307.288177,429.063171 306.731873,438.323273 
	C304.665344,453.863434 310.131317,465.110535 323.281860,472.468781 
	C328.792358,475.552094 334.607147,478.088715 340.260071,480.920807 
	C369.785950,495.713226 396.156158,514.530640 416.492157,540.974915 
	C420.956543,546.780273 425.066772,552.858337 429.542664,558.654419 
	C434.943695,565.648499 441.401215,570.857849 451.412170,569.890625 
	C465.641296,567.307739 473.863831,558.008484 478.913635,545.826599 
	C488.194946,523.436951 488.128601,500.142883 482.175385,477.178925 
	C477.301025,458.376434 470.244598,440.146729 464.381287,421.591766 
	C456.151947,395.549316 453.002838,369.136292 461.035767,342.486328 
	C469.080048,315.798615 490.184387,294.441223 522.794556,300.350372 
	C505.839294,304.882874 496.194305,316.646088 490.389832,331.982666 
	C482.676910,352.361511 482.749359,373.306580 486.975739,394.415680 
	C492.833740,423.674011 503.834564,450.294983 525.307190,471.921631 
	C540.179199,486.900269 557.871460,497.395538 576.814880,506.157471 
	C576.884644,506.069733 576.779846,506.267944 576.847595,506.568542 
	C577.628601,507.212128 578.341858,507.555145 579.284485,508.161469 
	C580.318848,509.264984 581.123901,510.105164 581.490601,510.890167 
	C579.295532,510.418213 577.492371,510.138702 575.789856,509.561951 
	C566.099915,506.279602 556.223450,504.315521 545.930481,505.014984 
	C528.235962,506.217468 514.911377,514.021179 507.191223,530.773438 
	C507.117584,531.291565 507.185883,531.560974 507.254150,531.830444 
	C507.561829,531.614563 507.869507,531.398743 508.489960,531.052124 
	C521.056519,521.149719 534.692932,516.077209 550.539551,518.901367 
	C552.106506,519.180664 553.494141,520.466064 554.964966,521.284485 
	C553.714294,522.372742 552.634277,523.847107 551.185669,524.487366 
	C541.026367,528.977417 531.536499,534.390381 524.547913,543.306702 
	C514.381287,556.277710 515.866211,569.998718 529.583191,578.941101 
	C536.524414,583.466309 544.942993,585.778381 552.795715,588.828369 
	C556.311951,590.194153 560.078857,590.914368 564.965149,592.269470 
	C562.949036,593.221375 562.390381,593.582764 561.778442,593.759949 
	C523.109314,604.956726 502.495483,632.445557 501.782074,672.684998 
	C501.276062,701.224426 513.102112,726.594666 521.150452,752.964722 
	C521.194031,756.723694 521.237610,760.482727 520.899414,764.702393 
	C520.332458,765.131409 520.147278,765.099731 519.962036,765.067993 
	C514.052246,754.683777 508.431732,744.121277 502.167206,733.955688 
	C491.889374,717.277710 482.805725,700.083008 479.629822,680.542847 
	C475.602356,655.763367 477.964020,632.098816 494.143463,611.462036 
	C495.269470,610.025879 496.562408,608.721802 497.730286,607.316895 
	C498.763306,606.074341 499.730164,604.776733 500.280029,602.438477 
	C497.416382,603.547913 494.552704,604.657410 491.012634,605.881897 
	C479.876556,609.820312 471.410950,616.403931 464.915070,625.309753 
	C450.209747,645.470703 450.068787,666.835144 460.194977,688.928101 
	C461.066528,690.829651 461.411224,692.972656 462.000671,695.003479 
	C458.847504,691.650085 455.573395,688.401550 452.561096,684.926025 
	C435.289795,664.999023 419.181152,644.232178 406.904053,620.752808 
	C404.977509,617.068481 403.289215,613.259460 401.255737,608.931396 
	C400.784454,608.015503 400.548157,607.676208 400.311829,607.336975 
M288.913391,663.275208 
	C297.413696,680.974365 308.321320,697.129700 322.372040,710.760742 
	C337.036224,724.986877 352.696655,738.182678 367.797394,751.964905 
	C371.463837,755.311279 374.643494,759.190918 378.046997,762.825378 
	C378.526276,762.500610 379.005554,762.175903 379.484833,761.851196 
	C377.820099,755.996643 376.155365,750.142090 374.270996,743.501038 
	C368.065979,724.291321 356.242615,708.360962 344.248474,692.592957 
	C330.338196,674.305847 315.827789,656.374451 305.622437,635.677734 
	C299.619751,623.504150 295.182068,610.558777 290.165161,597.169800 
	C283.968384,573.954346 280.955963,550.402466 281.859009,526.070251 
	C280.180359,531.494507 278.501709,536.918823 276.259613,542.929993 
	C274.871796,548.822998 273.082367,554.654175 272.163910,560.619446 
	C267.582520,590.374756 271.593262,619.222290 282.055237,647.271667 
	C284.004364,652.497253 286.557739,657.497559 288.913391,663.275208 
M662.128357,713.192139 
	C662.766052,714.357605 663.337280,715.565613 664.051697,716.682007 
	C671.320496,728.040649 685.028015,733.431580 697.882446,730.014282 
	C710.803223,726.579346 720.483032,715.064026 721.019531,702.489868 
	C721.557312,689.885803 714.885254,678.800049 703.588867,673.528381 
	C691.843689,668.047180 678.399597,670.049500 669.257812,678.641602 
	C659.938721,687.400330 657.198120,699.965820 662.128357,713.192139 
z"/>
<path fill="#B4A89D" opacity="1.000000" stroke="none" 
	d="
M716.894104,459.953186 
	C708.927307,471.140717 710.598816,483.809723 722.152405,491.581543 
	C728.385559,495.774414 735.756409,498.381592 742.817200,501.193970 
	C746.350281,502.601257 748.028564,504.272491 748.365112,508.256561 
	C750.104431,528.843262 741.519775,545.388245 727.556335,559.179382 
	C708.858093,577.646912 685.763916,587.354675 659.584290,588.928162 
	C646.977356,589.685913 634.276184,588.719971 621.637268,589.132446 
	C591.645752,590.111389 567.292297,603.071411 547.659546,625.281555 
	C544.751160,628.571716 543.016052,632.898865 540.457275,636.949829 
	C529.087341,640.117615 522.972839,648.185791 519.075989,658.233337 
	C513.922668,671.520264 514.617126,685.236633 516.454529,699.059326 
	C518.530396,714.676025 520.279968,730.336853 522.061646,745.991028 
	C522.301697,748.100098 521.901794,750.282043 521.474365,752.697510 
	C513.102112,726.594666 501.276062,701.224426 501.782074,672.684998 
	C502.495483,632.445557 523.109314,604.956726 561.778442,593.759949 
	C562.390381,593.582764 562.949036,593.221375 564.965149,592.269470 
	C560.078857,590.914368 556.311951,590.194153 552.795715,588.828369 
	C544.942993,585.778381 536.524414,583.466309 529.583191,578.941101 
	C515.866211,569.998718 514.381287,556.277710 524.547913,543.306702 
	C531.536499,534.390381 541.026367,528.977417 551.185669,524.487366 
	C552.634277,523.847107 553.714294,522.372742 554.964966,521.284485 
	C553.494141,520.466064 552.106506,519.180664 550.539551,518.901367 
	C534.692932,516.077209 521.056519,521.149719 508.288452,530.875427 
	C507.627167,530.727844 507.480133,530.626282 507.333130,530.524719 
	C514.911377,514.021179 528.235962,506.217468 545.930481,505.014984 
	C556.223450,504.315521 566.099915,506.279602 575.789856,509.561951 
	C577.492371,510.138702 579.295532,510.418213 581.793213,510.857605 
	C586.988770,515.189758 590.025085,520.292114 591.989502,527.065430 
	C587.309814,526.053589 583.497437,525.116272 579.642212,524.414856 
	C560.974670,521.018250 545.667419,529.724731 540.718811,546.486145 
	C537.212708,558.361572 541.763062,567.624634 553.303345,571.946777 
	C556.574097,573.171753 560.190186,573.720459 563.171631,575.416382 
	C568.076050,578.206238 572.591980,581.679077 577.782837,585.211792 
	C588.371521,578.047119 601.977966,575.189575 615.942932,574.036438 
	C632.000305,572.710510 648.188416,572.714539 664.178711,570.898438 
	C681.913391,568.884277 698.529358,563.001404 712.681519,551.591309 
	C721.298828,544.643616 727.784058,536.083679 730.493225,525.156067 
	C733.334351,513.695801 731.445496,509.685852 721.419617,504.109467 
	C714.170227,500.077332 707.888672,494.976349 704.208435,487.285553 
	C698.256348,474.847321 703.952271,462.617371 716.894104,459.953186 
z"/>
<path fill="#B5A99C" opacity="1.000000" stroke="none" 
	d="
M322.867249,514.973206 
	C324.396667,511.470306 325.926086,507.967438 328.118286,504.255768 
	C329.518005,505.107727 330.779877,506.110260 330.905182,507.238892 
	C331.625427,513.728333 331.979950,520.259094 332.752228,526.740845 
	C332.839600,527.474121 334.766266,527.988220 335.840057,528.603882 
	C335.955292,529.479797 336.070557,530.355774 335.901733,531.814209 
	C338.623688,542.314941 341.687500,552.216309 344.567993,562.170776 
	C344.960449,563.527039 344.920044,565.444275 344.225403,566.578308 
	C343.154602,568.326416 341.344971,569.621887 339.848755,571.109436 
	C338.571686,569.397461 337.294617,567.685425 336.017517,565.973450 
	C335.722687,566.002136 335.427856,566.030823 335.132996,566.059509 
	C335.907806,572.275391 336.361969,578.551270 337.512787,584.696655 
	C342.546936,611.578857 355.882996,634.591858 372.463440,655.662537 
	C395.405823,684.818054 419.106171,713.379578 442.624878,742.078369 
	C457.375031,760.077271 469.546387,779.347473 473.415070,802.777649 
	C474.514038,809.433289 474.732208,816.234436 475.454285,824.051453 
	C469.071564,822.620911 463.813751,821.442505 458.210876,820.072266 
	C458.899811,787.740967 446.986176,760.701050 425.555573,737.358398 
	C429.298981,752.591675 432.620697,767.731018 426.600250,783.252441 
	C419.804321,753.312256 402.681091,728.945923 385.052307,704.076172 
	C383.915222,701.074158 382.936615,698.759766 381.769226,696.544983 
	C379.748901,692.712036 378.528503,687.635864 375.344299,685.398621 
	C367.156189,679.645630 363.542938,670.766235 358.155121,663.143921 
	C356.479889,660.773865 355.346741,660.968994 353.396393,661.790466 
	C353.396393,661.790466 353.261993,661.671997 353.425232,661.230103 
	C352.400879,659.521729 351.213257,658.255371 350.025604,656.988953 
	C349.665436,656.537476 349.305298,656.085999 349.169006,655.102783 
	C349.417633,653.145935 350.055756,651.228882 349.369873,650.373596 
	C343.956726,643.623413 339.891113,636.119080 336.233154,628.339417 
	C333.967743,623.521423 331.304779,618.879333 329.237427,613.982117 
	C326.646515,607.844604 324.103241,601.637268 322.245667,595.254517 
	C320.510101,589.291077 319.049347,583.103455 318.623779,576.934814 
	C317.887115,566.257141 318.025391,555.518066 317.835205,544.804077 
	C317.752838,540.164978 317.766235,535.524109 317.736115,530.884033 
	C317.817596,530.456848 317.899109,530.029602 318.496002,529.275879 
	C320.296661,524.290649 321.581970,519.631897 322.867249,514.973206 
z"/>
<path fill="#B1A89E" opacity="1.000000" stroke="none" 
	d="
M462.082153,695.332642 
	C461.411224,692.972656 461.066528,690.829651 460.194977,688.928101 
	C450.068787,666.835144 450.209747,645.470703 464.915070,625.309753 
	C471.410950,616.403931 479.876556,609.820312 490.705200,606.081787 
	C488.406525,609.264832 485.896881,612.517761 483.043549,615.434387 
	C470.952759,627.793518 464.555573,642.657898 462.853607,659.763184 
	C461.479401,673.574402 463.530090,686.800842 468.840210,699.576538 
	C469.204071,700.451965 469.361359,701.413208 468.675629,703.055969 
	C466.504944,700.591248 464.334290,698.126526 462.082153,695.332642 
z"/>
<path fill="#B3ABA4" opacity="1.000000" stroke="none" 
	d="
M340.003540,571.412598 
	C341.344971,569.621887 343.154602,568.326416 344.225403,566.578308 
	C344.920044,565.444275 344.960449,563.527039 344.567993,562.170776 
	C341.687500,552.216309 338.623688,542.314941 335.892670,532.160583 
	C338.829102,539.545349 340.611725,547.630249 344.338013,554.689087 
	C351.709137,568.652588 359.556030,582.452332 368.373352,595.533142 
	C373.963104,603.825684 381.659088,610.698547 388.757080,618.092102 
	C389.103699,617.976135 389.018921,617.990906 388.945801,618.242859 
	C389.205566,618.981506 389.538483,619.468262 389.871429,619.955017 
	C390.607086,621.360107 391.342773,622.765259 392.016846,624.611755 
	C391.955231,625.053101 391.782532,625.227844 391.782532,625.227844 
	C389.765381,624.173828 387.538757,623.391724 385.763397,622.023804 
	C367.553833,607.993408 352.675934,590.918762 340.003540,571.412598 
z"/>
<path fill="#F2F0EA" opacity="1.000000" stroke="none" 
	d="
M741.036133,312.898254 
	C728.193115,302.013794 716.114441,290.296936 702.957275,279.951721 
	C672.184998,255.756042 637.144409,239.927505 599.282959,228.987686 
	C598.997925,228.333588 598.997925,228.166656 598.997925,227.999741 
	C607.018005,227.594772 614.287170,230.542068 621.533813,233.300201 
	C631.541626,237.109268 641.421753,241.253738 651.353027,245.263428 
	C656.078308,247.171204 661.055603,248.638702 665.455566,251.125214 
	C672.269043,254.975586 678.686279,259.527344 685.268799,263.785858 
	C685.405823,263.874512 685.489746,264.060852 685.632507,264.122772 
	C696.156189,268.686401 703.961853,277.139404 713.050598,283.718750 
	C718.337341,287.545807 724.647156,290.746277 727.907288,297.137573 
	C728.568726,298.434296 730.433044,299.122406 731.752625,300.077606 
	C736.220154,303.311462 739.779724,307.230743 741.036133,312.898254 
z"/>
<path fill="#F2EDE9" opacity="1.000000" stroke="none" 
	d="
M823.494995,560.898560 
	C823.876709,546.408936 825.165771,531.811279 825.245911,517.206909 
	C825.467102,476.887238 815.756165,438.633392 799.992554,401.375580 
	C805.183105,402.049744 805.412354,407.137451 806.871216,410.602295 
	C810.014954,418.069183 812.162476,425.969849 814.482666,433.762939 
	C815.596985,437.505981 816.054932,441.439484 817.030029,445.230194 
	C818.331848,450.290771 820.131226,455.235565 821.224243,460.335663 
	C827.065552,487.592621 827.661499,515.250366 826.858765,542.953186 
	C826.685852,548.921936 824.895874,554.843872 823.494995,560.898560 
z"/>
<path fill="#F1EFE5" opacity="1.000000" stroke="none" 
	d="
M598.743103,227.747284 
	C598.997925,228.166656 598.997925,228.333588 598.997498,228.750885 
	C586.492126,226.614059 574.055298,223.757935 561.468994,221.931534 
	C529.458679,217.286484 497.522736,218.188080 465.379883,224.515976 
	C466.502716,219.940598 471.073181,220.113403 474.335236,219.604492 
	C481.784180,218.442368 489.406403,218.268387 496.969208,217.986786 
	C508.890381,217.542938 520.828552,216.926178 532.744629,217.156921 
	C543.807007,217.371124 554.895203,218.210587 565.887756,219.495346 
	C575.868469,220.661819 585.981140,221.775040 595.169983,226.512177 
	C596.177246,227.031464 597.377502,227.176331 598.743103,227.747284 
z"/>
<path fill="#F2EDE9" opacity="1.000000" stroke="none" 
	d="
M782.820068,678.397583 
	C795.277527,655.432739 806.642212,631.940308 813.243835,606.507324 
	C816.912170,592.374756 819.508667,577.963867 822.776978,563.336426 
	C823.259216,566.883240 824.386047,570.933960 823.668823,574.626465 
	C822.272400,581.815918 819.716187,588.771912 817.880981,595.886719 
	C816.412109,601.581055 815.352112,607.379578 814.017212,613.110046 
	C811.552612,623.689697 807.750671,633.749573 802.556458,643.320557 
	C800.767090,646.617676 800.023315,650.477356 798.273193,653.801697 
	C794.077942,661.770691 789.591187,669.587097 785.140686,677.418762 
	C784.820190,677.982788 783.840149,678.172058 782.820068,678.397583 
z"/>
<path fill="#F2EDE9" opacity="1.000000" stroke="none" 
	d="
M799.319458,398.665955 
	C789.200378,382.056763 779.495667,365.047943 769.377869,348.288513 
	C766.218201,343.054565 761.943298,338.493866 758.225220,333.038147 
	C758.846802,331.968018 759.422180,331.484741 759.997559,331.001465 
	C766.423584,339.118378 773.058289,347.082245 779.175720,355.425415 
	C781.716980,358.891266 783.156860,363.165466 785.086487,367.077545 
	C785.231018,367.370514 785.202332,367.917236 785.394775,367.994141 
	C794.002991,371.433228 791.712524,380.888885 795.806702,386.800568 
	C798.223145,390.289795 801.754944,393.386902 799.319458,398.665955 
z"/>
<path fill="#F1EFE5" opacity="1.000000" stroke="none" 
	d="
M387.806274,249.842133 
	C371.384979,260.463501 354.722595,270.821259 337.742340,281.297363 
	C338.030945,279.760559 338.142212,277.366669 339.326233,276.572876 
	C345.854828,272.195984 352.938904,268.611938 359.272491,263.988831 
	C367.391205,258.062653 376.283630,253.678070 385.220062,249.299469 
	C385.813690,249.008606 386.774933,249.468048 387.806274,249.842133 
z"/>
<path fill="#F2EDE9" opacity="1.000000" stroke="none" 
	d="
M753.980408,718.660522 
	C761.515259,707.775146 769.436035,696.993896 777.643311,686.028870 
	C776.201233,689.849792 774.601013,693.916809 772.698425,697.837097 
	C771.453552,700.401917 769.196594,702.583984 768.409424,705.238892 
	C766.988586,710.031616 761.961304,711.335632 759.674194,715.281555 
	C758.725647,716.918213 756.183716,717.631409 753.980408,718.660522 
z"/>
<path fill="#F1EFE5" opacity="1.000000" stroke="none" 
	d="
M309.664734,305.027588 
	C300.971405,315.325653 291.873901,325.610657 282.478760,336.049255 
	C281.222992,332.095917 283.293671,329.904602 286.285767,327.139526 
	C291.400177,322.413208 295.621429,316.667267 299.888214,311.097107 
	C302.374146,307.851776 304.483826,304.517212 309.664734,305.027588 
z"/>
<path fill="#DDDCDF" opacity="1.000000" stroke="none" 
	d="
M385.416931,573.007690 
	C385.859589,567.531128 386.680725,562.062378 387.704254,555.245850 
	C389.660309,566.278931 391.336548,575.733643 392.972168,585.595459 
	C391.314941,582.388489 389.768341,578.740234 388.031982,575.184570 
	C387.603333,574.306824 386.557495,573.730530 385.416931,573.007690 
z"/>
<path fill="#F1EFE5" opacity="1.000000" stroke="none" 
	d="
M461.703644,224.693985 
	C448.621216,228.704208 435.255859,232.466873 421.505859,236.267426 
	C425.255585,234.179520 429.190491,231.392365 433.567841,230.071701 
	C441.576477,227.655487 449.838531,226.069778 458.017639,224.239258 
	C459.083191,224.000778 460.283081,224.362640 461.703644,224.693985 
z"/>
<path fill="#F1EFE5" opacity="1.000000" stroke="none" 
	d="
M418.740051,236.772263 
	C409.602570,241.037827 400.194519,245.040955 390.416199,249.079651 
	C391.197235,247.613144 392.040222,245.509064 393.561737,244.729645 
	C397.141724,242.895767 401.054443,241.716431 404.815460,240.229156 
	C407.357605,239.223862 409.808319,237.930923 412.417603,237.170532 
	C414.336151,236.611450 416.445312,236.706360 418.740051,236.772263 
z"/>
<path fill="#F2F0EA" opacity="1.000000" stroke="none" 
	d="
M759.929199,330.660706 
	C759.422180,331.484741 758.846802,331.968018 758.143188,332.707672 
	C753.149109,327.353546 748.283264,321.743011 743.256714,315.822845 
	C744.597290,315.804718 746.640137,315.574585 747.508606,316.475922 
	C751.796692,320.926147 755.773987,325.675873 759.929199,330.660706 
z"/>
<path fill="#F1EFE5" opacity="1.000000" stroke="none" 
	d="
M323.096649,292.644073 
	C319.185516,296.831512 314.929291,300.833099 310.357117,304.951538 
	C309.774902,303.452667 309.508667,301.836914 309.264618,300.355835 
	C313.832336,297.681091 318.291962,295.069672 323.096649,292.644073 
z"/>
<path fill="#F2EDE9" opacity="1.000000" stroke="none" 
	d="
M745.089600,728.789795 
	C747.465698,725.465942 750.233582,722.208557 753.276306,718.774414 
	C752.952637,725.390747 750.877625,728.028564 745.089600,728.789795 
z"/>
<path fill="#F1EFE5" opacity="1.000000" stroke="none" 
	d="
M276.744995,343.091034 
	C274.396545,347.041901 271.692535,351.018494 268.737030,355.205933 
	C266.229248,348.173920 273.173950,346.843536 276.744995,343.091034 
z"/>
<path fill="#F2EDE9" opacity="1.000000" stroke="none" 
	d="
M738.229370,735.933777 
	C739.909790,733.600464 742.010132,731.291504 744.410645,728.846069 
	C744.786682,732.878906 744.291321,736.570435 738.229370,735.933777 
z"/>
<path fill="#DDDCDF" opacity="1.000000" stroke="none" 
	d="
M395.228088,594.761597 
	C396.789764,597.971252 398.265564,601.635437 399.758575,605.663696 
	C396.142303,603.319214 394.536285,599.741638 395.228088,594.761597 
z"/>
<path fill="#F1EFE5" opacity="1.000000" stroke="none" 
	d="
M335.871399,282.195404 
	C334.419373,283.836670 332.575623,285.418579 330.410095,287.098083 
	C329.793335,283.279907 332.299530,282.348938 335.871399,282.195404 
z"/>
<path fill="#F2EDE9" opacity="1.000000" stroke="none" 
	d="
M779.428833,683.995728 
	C779.987061,682.345947 780.921082,680.677856 782.076721,678.788818 
	C781.467041,680.371094 780.635864,682.174194 779.428833,683.995728 
z"/>
<path fill="#F1EFE5" opacity="1.000000" stroke="none" 
	d="
M327.570618,288.993530 
	C326.790985,290.086731 325.610870,291.180328 324.156494,292.394348 
	C322.543243,289.067261 325.041016,289.202728 327.570618,288.993530 
z"/>
<path fill="#F1EFE5" opacity="1.000000" stroke="none" 
	d="
M280.127930,338.590942 
	C279.541534,340.094025 278.587982,341.451141 277.354034,342.955475 
	C277.969360,341.550140 278.865082,339.997559 280.127930,338.590942 
z"/>
<path fill="#DDDCDF" opacity="1.000000" stroke="none" 
	d="
M393.588501,589.252808 
	C394.194702,590.097778 394.598480,591.202637 394.963135,592.660645 
	C394.411316,591.846741 393.898682,590.679688 393.588501,589.252808 
z"/>
<path fill="#F1EFE5" opacity="1.000000" stroke="none" 
	d="
M281.854340,336.197998 
	C281.850800,336.801361 281.492523,337.433929 280.929199,338.253479 
	C280.982605,337.702728 281.241089,336.964966 281.854340,336.197998 
z"/>
<path fill="#F1EFE5" opacity="1.000000" stroke="none" 
	d="
M268.152863,355.486450 
	C268.188965,355.940643 267.904205,356.453247 267.362122,357.110168 
	C267.347229,356.684662 267.589630,356.114746 268.152863,355.486450 
z"/>
<path fill="#EFEBE5" opacity="1.000000" stroke="none" 
	d="
M205.969025,662.709351 
	C205.687088,662.532410 205.376312,662.064819 205.035278,661.307922 
	C205.316757,661.485291 205.628464,661.951965 205.969025,662.709351 
z"/>
<path fill="#0A0227" opacity="1.000000" stroke="none" 
	d="
M389.848450,619.658203 
	C389.538483,619.468262 389.205566,618.981506 388.942688,618.199951 
	C389.283661,618.390503 389.554565,618.875916 389.848450,619.658203 
z"/>
<path fill="#EFEBE5" opacity="1.000000" stroke="none" 
	d="
M206.867325,663.783813 
	C206.684769,663.865112 206.435944,663.672974 206.119049,663.208679 
	C206.302124,663.125732 206.552155,663.317078 206.867325,663.783813 
z"/>
<path fill="#B3ABA4" opacity="1.000000" stroke="none" 
	d="
M392.043640,624.967834 
	C392.298004,625.067810 392.463989,625.253052 392.629974,625.438293 
	C392.418732,625.478088 392.207458,625.517883 391.889374,625.392761 
	C391.782532,625.227844 391.955231,625.053101 392.043640,624.967834 
z"/>
<path fill="#B1A89E" opacity="1.000000" stroke="none" 
	d="
M470.516541,704.500916 
	C470.469238,704.528503 470.563843,704.473328 470.516541,704.500916 
z"/>
<path fill="#DDDCDF" opacity="1.000000" stroke="none" 
	d="
M400.299500,607.656616 
	C400.548157,607.676208 400.784454,608.015503 401.016205,608.676758 
	C400.770172,608.658020 400.528687,608.317139 400.299500,607.656616 
z"/>
<path fill="#B4A89D" opacity="1.000000" stroke="none" 
	d="
M519.994507,765.341064 
	C520.147278,765.099731 520.332458,765.131409 520.799561,765.165771 
	C520.730042,765.317078 520.378540,765.465576 519.994507,765.341064 
z"/>
<path fill="#F1EFE5" opacity="1.000000" stroke="none" 
	d="
M337.125793,281.456940 
	C337.172485,281.691498 336.949554,281.941681 336.473450,282.241150 
	C336.432251,282.017822 336.644226,281.745178 337.125793,281.456940 
z"/>
<path fill="#FDF7DE" opacity="1.000000" stroke="none" 
	d="
M717.218140,459.798859 
	C703.952271,462.617371 698.256348,474.847321 704.208435,487.285553 
	C707.888672,494.976349 714.170227,500.077332 721.419617,504.109467 
	C731.445496,509.685852 733.334351,513.695801 730.493225,525.156067 
	C727.784058,536.083679 721.298828,544.643616 712.681519,551.591309 
	C698.529358,563.001404 681.913391,568.884277 664.178711,570.898438 
	C648.188416,572.714539 632.000305,572.710510 615.942932,574.036438 
	C601.977966,575.189575 588.371521,578.047119 577.782837,585.211792 
	C572.591980,581.679077 568.076050,578.206238 563.171631,575.416382 
	C560.190186,573.720459 556.574097,573.171753 553.303345,571.946777 
	C541.763062,567.624634 537.212708,558.361572 540.718811,546.486145 
	C545.667419,529.724731 560.974670,521.018250 579.642212,524.414856 
	C583.497437,525.116272 587.309814,526.053589 591.989502,527.065430 
	C590.025085,520.292114 586.988770,515.189758 582.231506,510.912781 
	C581.123901,510.105164 580.318848,509.264984 579.244934,507.823334 
	C578.243958,506.903900 577.511902,506.585907 576.779846,506.267944 
	C576.779846,506.267944 576.884644,506.069733 576.914978,505.811157 
	C571.913025,501.013519 567.029297,496.295898 561.822754,491.966309 
	C539.500427,473.403870 520.599609,452.369080 510.587677,424.401031 
	C501.837463,399.957672 496.727417,375.193481 500.946503,349.109650 
	C503.593964,332.742218 510.553101,318.746429 522.842102,307.551758 
	C525.169556,305.431580 527.942810,303.800690 531.139282,301.489227 
	C527.782410,300.887329 525.369385,300.454651 522.956360,300.021973 
	C490.184387,294.441223 469.080048,315.798615 461.035767,342.486328 
	C453.002838,369.136292 456.151947,395.549316 464.381287,421.591766 
	C470.244598,440.146729 477.301025,458.376434 482.175385,477.178925 
	C488.128601,500.142883 488.194946,523.436951 478.913635,545.826599 
	C473.863831,558.008484 465.641296,567.307739 451.392822,569.523743 
	C462.239960,546.769653 458.686676,525.693298 445.202087,505.667023 
	C442.365814,501.454742 438.542023,497.907379 435.173309,494.053619 
	C436.302734,501.583374 438.378937,508.375763 439.949005,515.283142 
	C441.564850,522.391968 441.711395,529.572144 439.181305,537.893677 
	C425.448395,512.414490 403.695129,493.733795 393.095032,467.482635 
	C392.510468,467.648773 391.925873,467.814911 391.341278,467.981018 
	C392.221313,477.515533 393.101379,487.050049 393.997162,496.755188 
	C373.518341,481.342163 358.395325,462.996277 358.723511,435.196381 
	C356.453796,440.536591 354.760529,445.800629 354.190948,451.183594 
	C353.588470,456.877502 354.055756,462.684631 354.055756,468.877625 
	C348.108215,465.779480 342.002869,462.530670 335.836639,459.401794 
	C324.444977,453.621460 319.911194,440.064240 323.570190,428.730560 
	C324.983124,424.354004 327.177032,420.229584 329.000366,415.994965 
	C328.985565,415.999664 328.991638,416.031311 329.273865,415.914001 
	C329.868805,415.532959 330.181488,415.269196 330.768433,414.891296 
	C330.567108,413.882111 330.275055,412.404236 329.585907,412.187225 
	C325.334229,410.848358 326.571503,406.825623 328.275177,406.232941 
	C333.862732,404.289154 335.911346,400.055267 337.904755,395.288147 
	C338.336761,394.255035 340.049652,393.811096 341.038605,392.943085 
	C342.135590,391.980286 343.203156,390.934479 344.069122,389.765930 
	C349.397400,382.575958 356.960876,378.470337 364.839508,374.930420 
	C367.476471,373.745575 369.975098,373.133270 368.446289,369.481720 
	C368.446289,369.481720 368.529083,369.445526 368.997528,369.585327 
	C373.841095,369.025208 378.257233,368.500488 382.560638,367.493927 
	C383.554169,367.261536 384.654999,365.434967 384.788544,364.239441 
	C384.892242,363.311279 383.717773,361.504120 382.852692,361.322937 
	C377.078827,360.113556 371.197968,358.304871 365.426147,358.537140 
	C360.567047,358.732697 355.808472,361.426727 350.973022,362.718811 
	C350.624023,361.944061 350.307373,361.465240 350.216187,360.718567 
	C354.442566,358.471222 358.443573,356.491730 360.897125,355.277802 
	C361.935516,350.846863 362.741791,344.654938 363.486237,344.662354 
	C369.798798,344.725372 366.767670,338.336151 369.751892,336.561432 
	C370.336853,336.213562 371.372467,336.351013 372.106689,336.573364 
	C375.460236,337.589020 376.959839,336.756409 377.180969,332.925812 
	C377.278503,331.235718 379.011566,329.312927 380.493774,328.093262 
	C384.404388,324.875275 388.597137,322.001678 392.652588,318.957672 
	C396.191498,316.301453 399.677429,313.574524 403.222504,310.926697 
	C405.841095,308.970825 408.371887,305.760132 411.197479,305.451874 
	C417.367310,304.778778 422.081543,302.450928 426.670685,298.380157 
	C429.629669,295.755371 433.920471,294.598236 437.672180,292.911957 
	C440.522888,291.630646 443.379303,290.223633 446.381500,289.443237 
	C456.086182,286.920624 465.856873,284.651154 475.607483,282.306366 
	C478.943939,281.503998 482.261108,280.408112 485.648743,280.076660 
	C492.419556,279.414154 499.228882,278.951141 506.029663,278.835419 
	C516.223145,278.661957 526.432983,279.127319 536.614502,278.747864 
	C540.047546,278.619904 543.858093,281.313934 547.028015,277.888977 
	C547.474060,277.883392 547.920044,277.877838 548.779175,278.334961 
	C558.950500,281.870178 568.683411,285.026855 578.478821,287.975586 
	C582.647400,289.230408 586.708435,289.640167 590.523621,292.859741 
	C594.657104,296.347870 600.589417,297.712891 605.752197,299.969666 
	C609.491394,301.604156 611.709045,306.586914 616.893921,305.036713 
	C617.212891,305.159180 617.531860,305.281677 617.926758,306.020630 
	C616.924683,309.742371 618.290649,310.631012 621.102051,312.302216 
	C625.529175,314.933960 631.692505,318.978119 632.161987,323.002808 
	C633.049683,330.612000 640.049622,332.972565 642.507019,339.334198 
	C645.293030,346.546478 650.389404,352.791321 651.392212,361.154907 
	C651.736511,364.026093 650.589172,369.847137 656.778259,370.010071 
	C656.848816,370.169952 656.919312,370.329803 656.708984,371.039368 
	C656.526978,378.400757 658.145630,384.203705 662.507446,390.126617 
	C668.674744,398.501099 675.748230,405.310089 684.259766,411.038879 
	C689.509277,414.572174 696.260925,415.789337 700.080566,421.706726 
	C700.928833,423.020844 703.964417,422.963135 706.014526,423.444977 
	C707.080322,423.695496 708.284363,423.521698 709.270081,423.922638 
	C714.596619,426.089111 719.848450,428.439301 725.174744,430.606415 
	C734.556763,434.423706 743.967896,438.170105 753.378723,441.916321 
	C760.272278,444.660431 767.201599,447.315765 774.069824,450.121399 
	C775.031799,450.514343 776.251831,451.411285 776.471924,452.294373 
	C777.615417,456.882660 780.787781,457.037537 784.482727,456.343903 
	C784.482727,456.343903 784.596558,456.425446 784.494385,456.868713 
	C784.855225,459.544800 785.318176,461.777618 785.638611,463.323334 
	C782.872314,465.794922 780.528259,467.889282 778.073975,469.685852 
	C777.873291,468.974915 777.782837,468.561737 777.995850,467.900574 
	C779.240051,463.197144 776.698792,459.135498 770.959595,455.730042 
	C770.627991,455.162140 770.341858,454.858704 770.055725,454.555298 
	C769.891724,454.748016 769.727783,454.940735 769.563782,455.133453 
	C770.040771,455.424011 770.517822,455.714569 770.841187,456.291962 
	C769.752563,457.481995 768.817627,458.385193 767.470703,459.226105 
	C758.733582,456.823853 751.063293,459.119354 743.425781,462.277771 
	C737.502441,464.727295 731.426697,466.808411 725.418701,469.053253 
	C726.579529,462.214691 728.127686,459.930603 734.414795,455.780853 
	C730.130920,454.671234 723.671631,456.150360 717.218140,459.798859 
M531.939453,406.874664 
	C531.021118,408.475403 530.102722,410.076141 529.184387,411.676880 
	C536.931396,409.912201 543.876648,407.281555 550.754456,404.485077 
	C554.857849,402.816620 558.760498,402.566193 562.657837,404.999969 
	C570.851562,410.116577 579.881409,411.800690 589.404541,411.370514 
	C596.887451,411.032501 603.037842,413.837219 607.942688,419.387848 
	C611.403381,423.304260 614.727112,427.341644 618.882385,432.231628 
	C618.882385,428.453033 618.882385,425.725891 619.498230,422.542999 
	C622.848022,407.889984 624.772705,393.104309 622.885010,378.078400 
	C621.405945,366.305054 616.697388,356.070953 607.603821,348.105469 
	C596.669617,338.527679 576.185425,337.372101 566.162720,345.835083 
	C573.156799,346.483124 580.223999,346.877014 586.173767,352.264679 
	C557.059875,359.848938 541.471313,379.911499 531.939453,406.874664 
z"/>
<path fill="#F4F1E0" opacity="1.000000" stroke="none" 
	d="
M778.184204,469.983612 
	C780.528259,467.889282 782.872314,465.794922 785.638611,463.323334 
	C785.318176,461.777618 784.855225,459.544800 784.527588,456.930359 
	C792.668823,467.229218 791.796082,478.899536 788.397034,490.806396 
	C787.669312,493.355621 787.017944,496.110291 785.551453,498.230957 
	C780.909119,504.943634 780.728027,512.358459 780.774048,520.108459 
	C780.883545,538.550964 778.551941,556.656860 770.624023,573.571411 
	C758.296631,599.872620 737.286621,616.646057 710.712219,626.931641 
	C691.802673,634.250549 672.191345,638.144165 651.811157,638.096802 
	C644.008667,638.078674 636.058533,638.092224 628.430359,639.485657 
	C611.278625,642.618774 599.099915,656.374207 598.287903,675.640686 
	C597.619751,691.492737 599.452087,707.470947 600.520081,723.370056 
	C601.807678,742.537781 601.424133,761.340637 590.965515,778.415771 
	C589.365356,781.028198 587.447815,783.446228 585.816956,785.756104 
	C585.816956,775.057800 585.816956,764.512878 586.144775,753.236633 
	C586.159546,739.434082 585.780273,726.364014 585.551514,713.291260 
	C585.302490,699.062195 583.492493,684.593994 585.432800,670.657410 
	C588.154236,651.108887 598.419495,635.636780 618.055847,628.214844 
	C618.854492,627.913025 619.452271,627.079834 620.143555,626.494141 
	C631.613220,626.019226 643.079834,625.443054 654.553284,625.090149 
	C678.935974,624.340332 701.867065,618.319519 723.089600,606.228760 
	C752.811523,589.295837 766.385071,562.834473 767.985474,529.423096 
	C768.073120,527.594971 768.140442,525.755249 768.040771,523.930542 
	C767.439453,512.916382 768.214294,502.548889 774.080444,492.372040 
	C777.378967,486.649689 776.939392,478.772522 778.127502,471.234192 
	C778.108826,470.395996 778.146545,470.189819 778.184204,469.983612 
z"/>
<path fill="#B6AB9E" opacity="1.000000" stroke="none" 
	d="
M329.015137,415.990265 
	C327.177032,420.229584 324.983124,424.354004 323.570190,428.730560 
	C319.911194,440.064240 324.444977,453.621460 335.836639,459.401794 
	C342.002869,462.530670 348.108215,465.779480 354.055756,468.877625 
	C354.055756,462.684631 353.588470,456.877502 354.190948,451.183594 
	C354.760529,445.800629 356.453796,440.536591 358.723511,435.196381 
	C358.395325,462.996277 373.518341,481.342163 393.997162,496.755188 
	C393.101379,487.050049 392.221313,477.515533 391.341278,467.981018 
	C391.925873,467.814911 392.510468,467.648773 393.095032,467.482635 
	C403.695129,493.733795 425.448395,512.414490 439.181305,537.893677 
	C441.711395,529.572144 441.564850,522.391968 439.949005,515.283142 
	C438.378937,508.375763 436.302734,501.583374 435.173309,494.053619 
	C438.542023,497.907379 442.365814,501.454742 445.202087,505.667023 
	C458.686676,525.693298 462.239960,546.769653 451.010742,569.488342 
	C441.401215,570.857849 434.943695,565.648499 429.542664,558.654419 
	C425.066772,552.858337 420.956543,546.780273 416.492157,540.974915 
	C396.156158,514.530640 369.785950,495.713226 340.260071,480.920807 
	C334.607147,478.088715 328.792358,475.552094 323.281860,472.468781 
	C310.131317,465.110535 304.665344,453.863434 306.978027,438.079956 
	C308.554810,435.123993 309.378296,432.572601 310.760010,430.371674 
	C315.111542,423.440063 320.611694,417.837646 329.015137,415.990265 
z"/>
<path fill="#B4A89C" opacity="1.000000" stroke="none" 
	d="
M522.794556,300.350372 
	C525.369385,300.454651 527.782410,300.887329 531.139282,301.489227 
	C527.942810,303.800690 525.169556,305.431580 522.842102,307.551758 
	C510.553101,318.746429 503.593964,332.742218 500.946503,349.109650 
	C496.727417,375.193481 501.837463,399.957672 510.587677,424.401031 
	C520.599609,452.369080 539.500427,473.403870 561.822754,491.966309 
	C567.029297,496.295898 571.913025,501.013519 576.845215,505.898926 
	C557.871460,497.395538 540.179199,486.900269 525.307190,471.921631 
	C503.834564,450.294983 492.833740,423.674011 486.975739,394.415680 
	C482.749359,373.306580 482.676910,352.361511 490.389832,331.982666 
	C496.194305,316.646088 505.839294,304.882874 522.794556,300.350372 
z"/>
<path fill="#FAF5DF" opacity="1.000000" stroke="none" 
	d="
M662.005066,712.826111 
	C657.198120,699.965820 659.938721,687.400330 669.257812,678.641602 
	C678.399597,670.049500 691.843689,668.047180 703.588867,673.528381 
	C714.885254,678.800049 721.557312,689.885803 721.019531,702.489868 
	C720.483032,715.064026 710.803223,726.579346 697.882446,730.014282 
	C685.028015,733.431580 671.320496,728.040649 664.051697,716.682007 
	C663.337280,715.565613 662.766052,714.357605 662.005066,712.826111 
z"/>
<path fill="#F9F5E0" opacity="1.000000" stroke="none" 
	d="
M290.040497,597.960571 
	C295.182068,610.558777 299.619751,623.504150 305.622437,635.677734 
	C315.827789,656.374451 330.338196,674.305847 344.248474,692.592957 
	C356.242615,708.360962 368.065979,724.291321 374.001709,743.807251 
	C372.539856,743.271790 371.244080,742.543884 370.170898,741.570618 
	C360.947632,733.206055 351.790558,724.768494 342.564209,716.407349 
	C321.189148,697.036804 302.897888,675.288330 291.330200,648.576538 
	C284.149536,631.995178 282.497955,615.034302 290.040497,597.960571 
z"/>
<path fill="#B7ABA1" opacity="1.000000" stroke="none" 
	d="
M290.102844,597.565186 
	C282.497955,615.034302 284.149536,631.995178 291.330200,648.576538 
	C302.897888,675.288330 321.189148,697.036804 342.564209,716.407349 
	C351.790558,724.768494 360.947632,733.206055 370.170898,741.570618 
	C371.244080,742.543884 372.539856,743.271790 374.111542,744.200439 
	C376.155365,750.142090 377.820099,755.996643 379.484833,761.851196 
	C379.005554,762.175903 378.526276,762.500610 378.046997,762.825378 
	C374.643494,759.190918 371.463837,755.311279 367.797394,751.964905 
	C352.696655,738.182678 337.036224,724.986877 322.372040,710.760742 
	C308.321320,697.129700 297.413696,680.974365 288.937958,662.540161 
	C289.112579,660.516907 289.689178,659.099365 289.344360,657.960999 
	C286.870026,649.793945 284.669739,641.498352 281.497894,633.598755 
	C276.783600,621.857666 273.684174,609.835754 273.008911,597.226501 
	C272.739716,592.199585 272.635895,587.123535 273.009186,582.110962 
	C273.765472,571.955627 274.895233,561.828186 275.878510,551.689880 
	C276.180786,548.573059 276.507538,545.458679 276.823059,542.343140 
	C278.501709,536.918823 280.180359,531.494507 281.859009,526.070251 
	C280.955963,550.402466 283.968384,573.954346 290.102844,597.565186 
z"/>
<path fill="#B6AA9D" opacity="1.000000" stroke="none" 
	d="
M619.703491,626.355225 
	C619.452271,627.079834 618.854492,627.913025 618.055847,628.214844 
	C598.419495,635.636780 588.154236,651.108887 585.432800,670.657410 
	C583.492493,684.593994 585.302490,699.062195 585.551514,713.291260 
	C585.780273,726.364014 586.159546,739.434082 586.136353,752.769348 
	C580.007629,734.182861 574.013489,715.391052 568.500122,696.459290 
	C565.314758,685.521362 564.025391,674.249268 566.431152,662.925110 
	C570.683105,642.910339 585.434265,629.891357 606.843933,627.126465 
	C610.954407,626.595581 615.122131,626.508240 619.703491,626.355225 
z"/>
<path fill="#F4F1E0" opacity="1.000000" stroke="none" 
	d="
M351.005371,363.014740 
	C355.808472,361.426727 360.567047,358.732697 365.426147,358.537140 
	C371.197968,358.304871 377.078827,360.113556 382.852692,361.322937 
	C383.717773,361.504120 384.892242,363.311279 384.788544,364.239441 
	C384.654999,365.434967 383.554169,367.261536 382.560638,367.493927 
	C378.257233,368.500488 373.841095,369.025208 369.040100,369.570129 
	C373.207611,367.622894 377.801025,365.830627 383.554016,363.585907 
	C366.416962,361.468811 351.136597,363.698395 335.875549,371.949127 
	C381.157837,306.030243 456.939972,266.428741 546.693176,277.677704 
	C543.858093,281.313934 540.047546,278.619904 536.614502,278.747864 
	C526.432983,279.127319 516.223145,278.661957 506.029663,278.835419 
	C499.228882,278.951141 492.419556,279.414154 485.648743,280.076660 
	C482.261108,280.408112 478.943939,281.503998 475.607483,282.306366 
	C465.856873,284.651154 456.086182,286.920624 446.381500,289.443237 
	C443.379303,290.223633 440.522888,291.630646 437.672180,292.911957 
	C433.920471,294.598236 429.629669,295.755371 426.670685,298.380157 
	C422.081543,302.450928 417.367310,304.778778 411.197479,305.451874 
	C408.371887,305.760132 405.841095,308.970825 403.222504,310.926697 
	C399.677429,313.574524 396.191498,316.301453 392.652588,318.957672 
	C388.597137,322.001678 384.404388,324.875275 380.493774,328.093262 
	C379.011566,329.312927 377.278503,331.235718 377.180969,332.925812 
	C376.959839,336.756409 375.460236,337.589020 372.106689,336.573364 
	C371.372467,336.351013 370.336853,336.213562 369.751892,336.561432 
	C366.767670,338.336151 369.798798,344.725372 363.486237,344.662354 
	C362.741791,344.654938 361.935516,350.846863 360.897125,355.277802 
	C358.443573,356.491730 354.442566,358.471222 349.875275,360.679199 
	C345.211151,359.537903 345.347534,362.919983 344.750580,365.844055 
	C346.835510,364.900940 348.920441,363.957825 351.005371,363.014740 
z"/>
<path fill="#B0A69C" opacity="1.000000" stroke="none" 
	d="
M778.073975,469.685852 
	C778.146545,470.189819 778.108826,470.395996 777.964355,470.898041 
	C772.163574,470.097076 766.508728,468.668945 760.765381,467.989532 
	C753.978088,467.186676 748.246399,469.631622 743.031128,474.251923 
	C740.406250,476.577362 736.462463,478.673157 733.132812,478.646606 
	C728.235291,478.607544 725.154968,475.024963 725.273560,469.353577 
	C731.426697,466.808411 737.502441,464.727295 743.425781,462.277771 
	C751.063293,459.119354 758.733582,456.823853 767.720642,459.438995 
	C771.485840,462.525635 774.589111,465.337128 777.692383,468.148621 
	C777.782837,468.561737 777.873291,468.974915 778.073975,469.685852 
z"/>
<path fill="#F4F1E0" opacity="1.000000" stroke="none" 
	d="
M329.000366,415.994965 
	C320.611694,417.837646 315.111542,423.440063 310.760010,430.371674 
	C309.378296,432.572601 308.554810,435.123993 307.229706,437.758301 
	C307.288177,429.063171 310.921539,421.321808 315.735443,414.048920 
	C328.824097,394.274384 346.620697,379.993073 368.109070,369.569031 
	C369.975098,373.133270 367.476471,373.745575 364.839508,374.930420 
	C356.960876,378.470337 349.397400,382.575958 344.069122,389.765930 
	C343.203156,390.934479 342.135590,391.980286 341.038605,392.943085 
	C340.049652,393.811096 338.336761,394.255035 337.904755,395.288147 
	C335.911346,400.055267 333.862732,404.289154 328.275177,406.232941 
	C326.571503,406.825623 325.334229,410.848358 329.585907,412.187225 
	C330.275055,412.404236 330.567108,413.882111 330.533691,414.714966 
	C329.680298,415.112305 329.335968,415.571808 328.991638,416.031311 
	C328.991638,416.031311 328.985565,415.999664 329.000366,415.994965 
z"/>
<path fill="#F4F1E0" opacity="1.000000" stroke="none" 
	d="
M784.315491,456.067352 
	C780.787781,457.037537 777.615417,456.882660 776.471924,452.294373 
	C776.251831,451.411285 775.031799,450.514343 774.069824,450.121399 
	C767.201599,447.315765 760.272278,444.660431 753.378723,441.916321 
	C743.967896,438.170105 734.556763,434.423706 725.174744,430.606415 
	C719.848450,428.439301 714.596619,426.089111 709.270081,423.922638 
	C708.284363,423.521698 707.080322,423.695496 706.014526,423.444977 
	C703.964417,422.963135 700.928833,423.020844 700.080566,421.706726 
	C696.260925,415.789337 689.509277,414.572174 684.259766,411.038879 
	C675.748230,405.310089 668.674744,398.501099 662.507446,390.126617 
	C658.145630,384.203705 656.526978,378.400757 656.671021,371.298645 
	C662.165100,391.642456 676.277222,405.108582 694.454590,413.839386 
	C716.563965,424.458740 739.457397,433.461975 762.119019,442.906677 
	C770.091370,446.229340 778.476196,448.626923 784.315491,456.067352 
z"/>
<path fill="#B0A6AA" opacity="1.000000" stroke="none" 
	d="
M317.446655,531.155029 
	C317.766235,535.524109 317.752838,540.164978 317.835205,544.804077 
	C318.025391,555.518066 317.887115,566.257141 318.623779,576.934814 
	C319.049347,583.103455 320.510101,589.291077 322.245667,595.254517 
	C324.103241,601.637268 326.646515,607.844604 329.237427,613.982117 
	C331.304779,618.879333 333.967743,623.521423 336.233154,628.339417 
	C339.891113,636.119080 343.956726,643.623413 349.369873,650.373596 
	C350.055756,651.228882 349.417633,653.145935 349.111694,654.813477 
	C344.700653,648.490417 340.316620,642.069214 336.490204,635.331421 
	C326.316559,617.417175 319.291901,598.249023 316.160950,577.910889 
	C313.782806,562.463074 314.273926,546.866943 317.446655,531.155029 
z"/>
<path fill="#B0A7A9" opacity="1.000000" stroke="none" 
	d="
M276.541321,542.636597 
	C276.507538,545.458679 276.180786,548.573059 275.878510,551.689880 
	C274.895233,561.828186 273.765472,571.955627 273.009186,582.110962 
	C272.635895,587.123535 272.739716,592.199585 273.008911,597.226501 
	C273.684174,609.835754 276.783600,621.857666 281.497894,633.598755 
	C284.669739,641.498352 286.870026,649.793945 289.344360,657.960999 
	C289.689178,659.099365 289.112579,660.516907 288.897400,662.203491 
	C286.557739,657.497559 284.004364,652.497253 282.055237,647.271667 
	C271.593262,619.222290 267.582520,590.374756 272.163910,560.619446 
	C273.082367,554.654175 274.871796,548.822998 276.541321,542.636597 
z"/>
<path fill="#F4F1E0" opacity="1.000000" stroke="none" 
	d="
M656.801086,369.618164 
	C650.589172,369.847137 651.736511,364.026093 651.392212,361.154907 
	C650.389404,352.791321 645.293030,346.546478 642.507019,339.334198 
	C640.049622,332.972565 633.049683,330.612000 632.161987,323.002808 
	C631.692505,318.978119 625.529175,314.933960 621.102051,312.302216 
	C618.290649,310.631012 616.924683,309.742371 618.023071,306.265076 
	C638.194092,321.130951 650.313904,341.448181 655.973267,365.853668 
	C656.235107,366.982910 656.539429,368.102264 656.801086,369.618164 
z"/>
<path fill="#F4F1E0" opacity="1.000000" stroke="none" 
	d="
M616.723267,304.752655 
	C611.709045,306.586914 609.491394,301.604156 605.752197,299.969666 
	C600.589417,297.712891 594.657104,296.347870 590.523621,292.859741 
	C586.708435,289.640167 582.647400,289.230408 578.478821,287.975586 
	C568.683411,285.026855 558.950500,281.870178 549.096191,278.452209 
	C573.578979,281.611481 596.514465,289.327820 616.723267,304.752655 
z"/>
<path fill="#B0A6AA" opacity="1.000000" stroke="none" 
	d="
M353.505463,662.090393 
	C355.346741,660.968994 356.479889,660.773865 358.155121,663.143921 
	C363.542938,670.766235 367.156189,679.645630 375.344299,685.398621 
	C378.528503,687.635864 379.748901,692.712036 381.769226,696.544983 
	C382.936615,698.759766 383.915222,701.074158 384.963379,703.752625 
	C374.503510,690.237793 364.059021,676.314026 353.505463,662.090393 
z"/>
<path fill="#B3ABA4" opacity="1.000000" stroke="none" 
	d="
M335.631531,528.231628 
	C334.766266,527.988220 332.839600,527.474121 332.752228,526.740845 
	C331.979950,520.259094 331.625427,513.728333 330.905182,507.238892 
	C330.779877,506.110260 329.518005,505.107727 328.369873,504.021729 
	C329.156677,501.715729 330.354706,499.434967 332.141083,496.034027 
	C333.329376,507.557037 334.376190,517.708191 335.631531,528.231628 
z"/>
<path fill="#B0A6AA" opacity="1.000000" stroke="none" 
	d="
M322.620911,515.220703 
	C321.581970,519.631897 320.296661,524.290649 318.632721,528.979675 
	C319.627563,524.496094 321.001068,519.982178 322.620911,515.220703 
z"/>
<path fill="#B0A6AA" opacity="1.000000" stroke="none" 
	d="
M350.102051,657.302490 
	C351.213257,658.255371 352.400879,659.521729 353.398193,661.144653 
	C352.198090,660.206177 351.188324,658.911133 350.102051,657.302490 
z"/>
<path fill="#B4A89C" opacity="1.000000" stroke="none" 
	d="
M576.847595,506.568542 
	C577.511902,506.585907 578.243958,506.903900 579.015564,507.559998 
	C578.341858,507.555145 577.628601,507.212128 576.847595,506.568542 
z"/>
<path fill="#B4A89D" opacity="1.000000" stroke="none" 
	d="
M507.975708,531.006104 
	C507.869507,531.398743 507.561829,531.614563 507.254150,531.830444 
	C507.185883,531.560974 507.117584,531.291565 507.191223,530.773438 
	C507.480133,530.626282 507.627167,530.727844 507.975708,531.006104 
z"/>
<path fill="#0C0627" opacity="1.000000" stroke="none" 
	d="
M618.882385,422.998718 
	C618.882385,425.725891 618.882385,428.453033 618.882385,432.231628 
	C614.727112,427.341644 611.403381,423.304260 607.942688,419.387848 
	C603.037842,413.837219 596.887451,411.032501 589.404541,411.370514 
	C579.881409,411.800690 570.851562,410.116577 562.657837,404.999969 
	C558.760498,402.566193 554.857849,402.816620 550.754456,404.485077 
	C543.876648,407.281555 536.931396,409.912201 529.184387,411.676880 
	C530.102722,410.076141 531.021118,408.475403 532.399536,406.475525 
	C542.105469,396.534332 551.473816,387.106842 560.551147,377.406921 
	C565.936707,371.651917 572.216553,367.575195 579.725891,365.391907 
	C594.816406,361.004364 608.437622,369.360840 610.821350,384.667511 
	C611.532532,389.234802 611.325317,393.942230 611.597534,398.582031 
	C611.713562,400.559143 611.631531,402.643341 612.241760,404.478699 
	C614.310120,410.700287 616.647644,416.832428 618.882385,422.998718 
M583.303833,378.894989 
	C577.177917,379.125000 573.923950,381.895142 573.660645,387.104553 
	C573.433228,391.603180 576.686768,395.576141 581.064819,396.145935 
	C585.860229,396.770050 590.103271,394.233002 591.120483,390.133423 
	C592.393372,385.002899 589.719543,380.730499 583.303833,378.894989 
z"/>
<path fill="#B3A79C" opacity="1.000000" stroke="none" 
	d="
M619.190308,422.770874 
	C616.647644,416.832428 614.310120,410.700287 612.241760,404.478699 
	C611.631531,402.643341 611.713562,400.559143 611.597534,398.582031 
	C611.325317,393.942230 611.532532,389.234802 610.821350,384.667511 
	C608.437622,369.360840 594.816406,361.004364 579.725891,365.391907 
	C572.216553,367.575195 565.936707,371.651917 560.551147,377.406921 
	C551.473816,387.106842 542.105469,396.534332 532.535339,406.161377 
	C541.471313,379.911499 557.059875,359.848938 586.173767,352.264679 
	C580.223999,346.877014 573.156799,346.483124 566.162720,345.835083 
	C576.185425,337.372101 596.669617,338.527679 607.603821,348.105469 
	C616.697388,356.070953 621.405945,366.305054 622.885010,378.078400 
	C624.772705,393.104309 622.848022,407.889984 619.190308,422.770874 
z"/>
<path fill="#F4F1E0" opacity="1.000000" stroke="none" 
	d="
M777.995850,467.900574 
	C774.589111,465.337128 771.485840,462.525635 768.132690,459.501282 
	C768.817627,458.385193 769.752563,457.481995 770.843750,456.289398 
	C771.000000,456.000000 771.005127,455.994476 771.005127,455.994476 
	C776.698792,459.135498 779.240051,463.197144 777.995850,467.900574 
z"/>
<path fill="#FAF9D7" opacity="1.000000" stroke="none" 
	d="
M350.973022,362.718811 
	C348.920441,363.957825 346.835510,364.900940 344.750580,365.844055 
	C345.347534,362.919983 345.211151,359.537903 349.649841,360.947021 
	C350.307373,361.465240 350.624023,361.944061 350.973022,362.718811 
z"/>
<path fill="#F4F1E0" opacity="1.000000" stroke="none" 
	d="
M770.997437,456.002563 
	C770.517822,455.714569 770.040771,455.424011 769.563782,455.133453 
	C769.727783,454.940735 769.891724,454.748016 770.055725,454.555298 
	C770.341858,454.858704 770.627991,455.162140 770.959595,455.730042 
	C771.005127,455.994476 771.000000,456.000000 770.997437,456.002563 
z"/>
<path fill="#B6AB9E" opacity="1.000000" stroke="none" 
	d="
M329.273865,415.914001 
	C329.335968,415.571808 329.680298,415.112305 330.259399,414.829102 
	C330.181488,415.269196 329.868805,415.532959 329.273865,415.914001 
z"/>
<path fill="#F0F0E2" opacity="1.000000" stroke="none" 
	d="
M583.715454,378.927032 
	C589.719543,380.730499 592.393372,385.002899 591.120483,390.133423 
	C590.103271,394.233002 585.860229,396.770050 581.064819,396.145935 
	C576.686768,395.576141 573.433228,391.603180 573.660645,387.104553 
	C573.923950,381.895142 577.177917,379.125000 583.715454,378.927032 
z"/>
</svg>